<!DOCTYPE svg PUBLIC "-//W3C//DTD SVG 20010904//EN" "http://www.w3.org/TR/2001/REC-SVG-20010904/DTD/svg10.dtd">
<svg version="1.0" xmlns="http://www.w3.org/2000/svg" width="500px" height="500px" viewBox="0 0 5000 5000" preserveAspectRatio="xMidYMid meet">
<g id="layer101" fill="#8c1919" stroke="none">
 <path d="M655 4626 c-108 -34 -195 -110 -242 -211 l-28 -60 0 -1875 0 -1875 26 -56 c50 -107 144 -185 255 -214 54 -14 267 -15 1900 -13 l1839 3 48 22 c121 56 192 135 228 253 19 64 19 98 17 1900 l-3 1835 -23 58 c-33 82 -123 176 -204 213 l-63 29 -1855 2 c-1479 1 -1863 -1 -1895 -11z"/>
 </g>
<g id="layer102" fill="#fefdfd" stroke="none">
 <path d="M1112 4008 c-8 -8 -12 -51 -12 -130 0 -106 2 -118 19 -128 55 -29 125 5 119 58 -4 35 -41 38 -46 4 -3 -17 -9 -22 -25 -20 -21 3 -22 8 -22 88 0 81 1 85 23 88 17 3 22 -2 22 -17 0 -16 6 -21 25 -21 19 0 25 5 25 23 0 42 -27 67 -74 67 -23 0 -47 -5 -54 -12z"/>
 <path d="M1270 3900 l0 -120 59 0 c76 0 84 10 77 92 -3 35 -6 68 -7 73 -1 6 1 25 5 43 7 31 6 33 -15 30 -16 -2 -25 -12 -31 -35 -12 -45 -38 -44 -38 2 0 31 -3 35 -25 35 l-25 0 0 -120z m95 -40 c0 -29 -4 -36 -22 -38 -21 -3 -23 1 -23 38 0 37 2 41 23 38 18 -2 22 -9 22 -38z"/>
 <path d="M1447 4013 c-4 -3 -7 -57 -7 -120 l0 -113 70 0 c63 0 70 2 70 20 0 17 -7 20 -45 20 -43 0 -45 1 -45 30 0 28 3 30 35 30 28 0 35 4 35 20 0 16 -7 20 -35 20 -31 0 -35 3 -35 25 0 23 4 25 45 25 41 0 45 2 45 25 0 24 -2 25 -63 25 -35 0 -67 -3 -70 -7z"/>
 <path d="M1610 4018 c1 -2 13 -55 29 -118 27 -114 28 -115 58 -118 l30 -3 30 120 31 121 -23 0 c-16 0 -25 -8 -29 -25 -5 -20 -13 -25 -36 -25 -23 0 -33 6 -40 25 -6 15 -17 25 -30 25 -11 0 -20 -1 -20 -2z m104 -115 c-8 -33 -24 -54 -24 -32 0 7 -3 24 -6 37 -5 18 -2 22 15 22 18 0 20 -4 15 -27z"/>
 <path d="M1817 4013 c-4 -3 -7 -57 -7 -120 l0 -113 59 0 c37 0 63 5 70 14 7 8 10 52 9 120 -3 100 -4 107 -23 104 -13 -2 -22 -13 -25 -33 -3 -18 -12 -31 -23 -33 -14 -3 -17 4 -17 32 0 28 -4 36 -18 36 -10 0 -22 -3 -25 -7z m91 -150 c-2 -31 -7 -39 -25 -41 -21 -3 -23 1 -23 37 0 37 2 41 26 41 23 0 25 -3 22 -37z"/>
 <path d="M2070 3900 l0 -120 58 0 c32 0 63 5 70 12 17 17 16 123 -1 137 -8 6 -28 14 -45 17 -28 6 -32 10 -32 40 0 30 -3 34 -25 34 l-25 0 0 -120z m95 -40 c0 -29 -4 -36 -22 -38 -21 -3 -23 1 -23 38 0 37 2 41 23 38 18 -2 22 -9 22 -38z"/>
 <path d="M2240 4018 c1 -2 13 -55 29 -118 27 -114 28 -115 58 -118 l30 -3 30 120 31 121 -23 0 c-16 0 -25 -8 -29 -25 -5 -20 -13 -25 -36 -25 -23 0 -33 6 -40 25 -6 15 -17 25 -30 25 -11 0 -20 -1 -20 -2z m104 -115 c-8 -33 -24 -54 -24 -32 0 7 -3 24 -6 37 -5 18 -2 22 15 22 18 0 20 -4 15 -27z"/>
 <path d="M2440 3900 l0 -120 59 0 c76 0 84 10 77 92 -3 35 -6 68 -7 73 -1 6 1 25 5 43 7 31 6 33 -15 30 -16 -2 -25 -12 -31 -35 -12 -45 -38 -44 -38 2 0 31 -3 35 -25 35 l-25 0 0 -120z m95 -40 c0 -29 -4 -36 -22 -38 -21 -3 -23 1 -23 38 0 37 2 41 23 38 18 -2 22 -9 22 -38z"/>
 <path d="M2658 3923 c-3 -93 -4 -98 -25 -101 -15 -2 -23 -10 -23 -23 0 -17 8 -19 70 -19 62 0 70 2 70 19 0 13 -8 21 -22 23 -22 3 -23 8 -26 101 -2 88 -4 97 -22 97 -18 0 -20 -9 -22 -97z"/>
 <path d="M2777 4013 c-4 -3 -7 -57 -7 -120 l0 -113 25 0 25 0 0 120 c0 110 -2 120 -18 120 -10 0 -22 -3 -25 -7z"/>
 <path d="M2872 4008 c-16 -16 -16 -200 0 -216 7 -7 33 -12 60 -12 52 0 68 15 68 64 0 21 -5 26 -25 26 -20 0 -25 -5 -25 -26 0 -21 -4 -25 -22 -22 -22 3 -23 8 -23 78 0 68 2 75 20 75 13 0 21 -8 23 -22 5 -33 52 -33 52 0 0 42 -27 67 -74 67 -23 0 -47 -5 -54 -12z"/>
 <path d="M3030 3900 l0 -120 25 0 25 0 0 120 0 120 -25 0 -25 0 0 -120z"/>
 <path d="M3110 3900 l0 -120 58 0 c32 0 63 5 70 12 17 17 16 123 -1 137 -8 6 -28 14 -45 17 -28 6 -32 10 -32 40 0 30 -3 34 -25 34 l-25 0 0 -120z m95 -40 c0 -29 -4 -36 -22 -38 -21 -3 -23 1 -23 38 0 37 2 41 23 38 18 -2 22 -9 22 -38z"/>
 <path d="M3280 4018 c1 -2 13 -55 29 -118 27 -114 28 -115 58 -118 l30 -3 30 120 31 121 -23 0 c-16 0 -25 -8 -29 -25 -5 -20 -13 -25 -36 -25 -23 0 -33 6 -40 25 -6 15 -17 25 -30 25 -11 0 -20 -1 -20 -2z m104 -115 c-8 -33 -24 -54 -24 -32 0 7 -3 24 -6 37 -5 18 -2 22 15 22 18 0 20 -4 15 -27z"/>
 <path d="M3480 3900 c0 -113 1 -120 20 -120 14 0 29 18 52 63 l33 62 3 -62 c3 -55 6 -63 22 -63 19 0 20 8 20 120 0 109 -2 120 -18 120 -12 0 -28 -21 -49 -62 l-32 -63 0 63 c-1 59 -2 62 -26 62 l-25 0 0 -120z"/>
 <path d="M3700 3920 c0 -93 -1 -100 -20 -100 -13 0 -20 -7 -20 -20 0 -18 7 -20 70 -20 63 0 70 2 70 20 0 15 -7 20 -25 20 l-25 0 0 100 0 100 -25 0 -25 0 0 -100z"/>
 <path d="M3827 4013 c-4 -3 -7 -57 -7 -120 l0 -113 70 0 c63 0 70 2 70 20 0 17 -7 20 -45 20 -43 0 -45 1 -45 30 0 28 3 30 35 30 28 0 35 4 35 20 0 16 -7 20 -35 20 -31 0 -35 3 -35 25 0 23 4 25 45 25 41 0 45 2 45 25 0 24 -2 25 -63 25 -35 0 -67 -3 -70 -7z"/>
 <path d="M1530 3491 c-69 -21 -130 -73 -166 -141 -18 -33 -19 -78 -19 -1005 l0 -970 25 -49 c14 -27 40 -61 59 -77 73 -60 57 -59 835 -59 l711 0 -255 255 -255 255 -432 0 -433 0 0 770 0 770 900 0 900 0 0 -596 c0 -534 2 -599 16 -624 23 -38 64 -60 113 -60 33 0 49 7 79 34 l37 34 0 644 c0 599 -1 645 -18 679 -26 52 -75 99 -132 125 l-50 24 -945 -1 c-520 0 -956 -4 -970 -8z"/>
 <path d="M2054 3185 c-213 -46 -364 -234 -364 -454 0 -140 45 -245 147 -342 67 -64 117 -92 200 -114 218 -57 439 47 540 253 38 76 38 77 38 202 0 124 0 126 -37 200 -66 135 -200 237 -344 260 -75 12 -104 12 -180 -5z m306 -237 c0 -45 -41 -126 -83 -166 -33 -33 -36 -33 -75 -21 -30 9 -52 9 -84 1 -34 -9 -47 -8 -65 3 -50 33 -102 127 -103 188 l0 27 205 0 205 0 0 -32z m-150 -234 c121 -49 111 -223 -16 -264 -72 -24 -165 35 -180 114 -10 54 26 119 79 145 51 25 65 26 117 5z"/>
 <path d="M2500 2182 l0 -157 463 -463 c254 -254 467 -462 472 -462 6 0 78 70 159 156 l149 156 -464 464 -464 464 -157 0 -158 0 0 -158z"/>
 <path d="M3700 1135 l-155 -155 87 -87 c124 -124 123 -124 285 40 154 155 154 151 30 275 -45 45 -84 82 -87 82 -3 0 -75 -70 -160 -155z"/>
 </g>

</svg>