<!DOCTYPE svg PUBLIC "-//W3C//DTD SVG 20010904//EN" "http://www.w3.org/TR/2001/REC-SVG-20010904/DTD/svg10.dtd">
<svg version="1.0" xmlns="http://www.w3.org/2000/svg" width="500px" height="500px" viewBox="0 0 5000 5000" preserveAspectRatio="xMidYMid meet">
<g id="layer101" fill="#8c1919" stroke="none">
 <path d="M655 4626 c-108 -34 -195 -110 -242 -211 l-28 -60 0 -1875 0 -1875 26 -56 c50 -107 144 -185 255 -214 54 -14 267 -15 1900 -13 l1839 3 48 22 c121 56 192 135 228 253 19 64 19 98 17 1900 l-3 1835 -23 58 c-33 82 -123 176 -204 213 l-63 29 -1855 2 c-1479 1 -1863 -1 -1895 -11z"/>
 </g>
<g id="layer102" fill="#fdfbfb" stroke="none">
 <path d="M1642 4008 c-8 -8 -12 -51 -12 -130 0 -106 2 -118 19 -128 55 -29 125 5 119 58 -4 35 -41 38 -46 4 -3 -17 -9 -22 -25 -20 -21 3 -22 8 -22 88 0 81 1 85 23 88 17 3 22 -2 22 -17 0 -16 6 -21 25 -21 19 0 25 5 25 23 0 42 -27 67 -74 67 -23 0 -47 -5 -54 -12z"/>
 <path d="M1800 3901 l0 -121 60 0 c48 0 61 4 70 19 13 25 13 114 0 127 -7 7 -8 25 -1 52 8 40 8 42 -15 42 -19 0 -24 -7 -30 -35 -8 -44 -32 -46 -36 -2 -2 24 -8 33 -25 35 -23 3 -23 2 -23 -117z m90 -41 c0 -33 -3 -40 -20 -40 -17 0 -20 7 -20 40 0 33 3 40 20 40 17 0 20 -7 20 -40z"/>
 <path d="M1970 3900 l0 -120 70 0 c63 0 70 2 70 20 0 17 -7 20 -45 20 -43 0 -45 1 -45 30 0 28 3 30 35 30 28 0 35 4 35 20 0 16 -7 20 -35 20 -31 0 -35 3 -35 25 0 23 4 25 45 25 41 0 45 2 45 25 0 24 -2 25 -70 25 l-70 0 0 -120z"/>
 <path d="M2144 3998 c3 -13 16 -67 28 -120 l22 -98 31 0 31 0 27 113 c15 61 27 115 27 120 0 4 -9 7 -20 7 -13 0 -22 -9 -26 -25 -5 -20 -12 -25 -39 -25 -27 0 -34 5 -39 25 -4 17 -13 25 -27 25 -17 0 -20 -4 -15 -22z m93 -110 c-8 -34 -12 -38 -18 -22 -14 37 -10 64 10 64 17 0 18 -4 8 -42z"/>
 <path d="M2340 3900 l0 -120 59 0 c76 0 84 10 77 92 -3 35 -6 68 -7 73 -1 6 1 25 5 43 7 31 6 33 -15 30 -16 -2 -25 -12 -31 -35 -12 -45 -38 -44 -38 2 0 31 -3 35 -25 35 l-25 0 0 -120z m95 -40 c0 -29 -4 -36 -22 -38 -21 -3 -23 1 -23 38 0 37 2 41 23 38 18 -2 22 -9 22 -38z"/>
 <path d="M2616 4004 c-12 -12 -16 -36 -16 -100 0 -111 7 -124 68 -124 57 0 72 12 72 57 0 26 -4 33 -19 33 -13 0 -21 -8 -23 -22 -2 -15 -11 -24 -26 -26 -22 -3 -23 -2 -20 75 3 70 5 78 23 78 13 0 21 -8 23 -22 2 -15 10 -23 23 -23 15 0 19 7 19 33 0 18 -5 38 -12 45 -18 18 -94 15 -112 -4z"/>
 <path d="M2789 4003 c-10 -11 -14 -46 -14 -117 0 -97 1 -101 23 -104 21 -3 22 -1 22 92 0 96 0 96 25 96 25 0 25 0 25 -95 0 -88 1 -95 20 -95 19 0 20 7 20 108 0 71 -4 112 -12 120 -18 18 -93 15 -109 -5z"/>
 <path d="M2950 3901 l0 -121 60 0 c48 0 61 4 70 19 13 25 13 114 0 127 -7 7 -8 25 -1 52 8 40 8 42 -15 42 -19 0 -24 -7 -30 -35 -8 -44 -32 -46 -36 -2 -2 24 -8 33 -25 35 -23 3 -23 2 -23 -117z m90 -41 c0 -33 -3 -40 -20 -40 -17 0 -20 7 -20 40 0 33 3 40 20 40 17 0 20 -7 20 -40z"/>
 <path d="M3136 4004 c-9 -8 -16 -26 -16 -40 0 -19 5 -24 24 -24 15 0 26 7 29 20 8 31 37 25 37 -8 0 -24 -6 -30 -42 -42 -39 -14 -43 -18 -46 -52 -5 -60 11 -78 66 -78 55 0 72 12 72 52 0 22 -5 28 -21 28 -12 0 -23 -8 -26 -20 -8 -29 -43 -26 -43 4 0 19 8 26 45 36 l45 13 0 51 c0 29 -5 57 -12 64 -18 18 -94 15 -112 -4z"/>
 <path d="M3309 4003 c-18 -20 -24 -158 -10 -195 9 -25 15 -28 59 -28 26 0 53 5 60 12 8 8 12 47 12 108 0 61 -4 100 -12 108 -18 18 -93 15 -109 -5z m76 -103 c0 -68 -2 -75 -20 -75 -18 0 -20 8 -23 64 -4 75 2 94 25 89 15 -3 18 -15 18 -78z"/>
 <path d="M1530 3491 c-69 -21 -130 -73 -166 -141 -18 -33 -19 -78 -19 -1005 l0 -970 25 -49 c14 -27 40 -61 59 -77 73 -60 57 -59 835 -59 l711 0 -255 255 -255 255 -432 0 -433 0 0 459 0 460 138 -48 c75 -26 239 -83 363 -125 l225 -77 375 127 c206 70 377 130 381 133 4 3 -165 65 -374 137 l-381 131 -231 -80 c-127 -43 -239 -82 -248 -84 -15 -5 -18 2 -18 41 0 25 5 46 10 46 6 0 15 11 22 25 9 19 8 29 -5 48 -13 21 -14 42 -7 148 5 68 10 141 10 162 l0 37 770 0 770 0 0 -596 c0 -534 2 -599 16 -624 23 -38 64 -60 113 -60 33 0 49 7 79 34 l37 34 0 644 c0 599 -1 645 -18 679 -26 52 -75 99 -132 125 l-50 24 -945 -1 c-520 0 -956 -4 -970 -8z m231 -253 c0 -2 6 -73 14 -158 11 -133 11 -157 -1 -171 -18 -20 -18 -63 1 -79 10 -8 15 -31 15 -65 l0 -53 -82 -28 c-46 -15 -89 -29 -95 -32 -10 -3 -13 59 -13 292 l0 296 80 0 c44 0 80 -1 81 -2z m58 -60 c-1 -72 -5 -68 -12 10 -2 28 0 52 4 52 5 0 9 -28 8 -62z m2 -311 c-1 -12 -15 -9 -19 4 -3 6 1 10 8 8 6 -3 11 -8 11 -12z m835 -126 c176 -61 317 -110 314 -110 -3 -1 -149 -50 -324 -111 l-318 -109 -312 106 c-171 58 -314 109 -318 112 -4 4 23 17 61 30 l69 23 213 -71 c118 -39 217 -71 222 -71 4 0 7 9 7 19 0 16 -31 30 -186 81 -102 34 -184 64 -182 66 7 7 404 143 419 143 9 1 160 -48 335 -108z"/>
 <path d="M2127 3135 c-115 -46 -211 -86 -214 -88 -7 -7 66 -237 75 -236 4 0 83 26 177 58 l170 58 174 -58 c97 -33 178 -59 182 -59 3 0 21 48 39 108 18 59 35 112 37 118 3 9 -306 140 -422 179 -5 2 -104 -34 -218 -80z m405 -36 c101 -40 185 -73 187 -75 3 -3 -48 -164 -53 -164 -1 0 -75 24 -164 54 l-162 55 -161 -54 c-89 -30 -165 -53 -168 -50 -13 8 -56 158 -46 162 6 2 87 34 180 72 94 38 178 69 187 70 10 1 100 -31 200 -70z"/>
 <path d="M2500 2182 l0 -157 463 -463 c254 -254 467 -462 472 -462 6 0 78 70 159 156 l149 156 -464 464 -464 464 -157 0 -158 0 0 -158z"/>
 <path d="M3700 1135 l-155 -155 87 -87 c124 -124 123 -124 285 40 154 155 154 151 30 275 -45 45 -84 82 -87 82 -3 0 -75 -70 -160 -155z"/>
 </g>

</svg>