<!DOCTYPE svg PUBLIC "-//W3C//DTD SVG 20010904//EN" "http://www.w3.org/TR/2001/REC-SVG-20010904/DTD/svg10.dtd">
<svg version="1.0" xmlns="http://www.w3.org/2000/svg" width="500px" height="500px" viewBox="0 0 5000 5000" preserveAspectRatio="xMidYMid meet">
<g id="layer101" fill="#8c1919" stroke="none">
 <path d="M655 4626 c-108 -34 -195 -110 -242 -211 l-28 -60 0 -1875 0 -1875 26 -56 c50 -107 144 -185 255 -214 54 -14 267 -15 1900 -13 l1839 3 48 22 c121 56 192 135 228 253 19 64 19 98 17 1900 l-3 1835 -23 58 c-33 82 -123 176 -204 213 l-63 29 -1855 2 c-1479 1 -1863 -1 -1895 -11z"/>
 </g>
<g id="layer102" fill="#fefdfd" stroke="none">
 <path d="M1206 4004 c-13 -12 -16 -39 -16 -124 0 -101 2 -110 22 -124 26 -18 71 -21 99 -6 28 15 28 90 0 90 -13 0 -21 -8 -23 -22 -2 -15 -11 -24 -25 -26 -22 -3 -23 -1 -23 87 0 86 1 91 21 91 12 0 23 -8 26 -20 3 -11 14 -20 24 -20 15 0 19 7 19 33 0 18 -5 38 -12 45 -18 18 -94 15 -112 -4z"/>
 <path d="M1370 3900 l0 -120 60 0 c57 0 61 2 71 28 6 15 8 47 4 72 -3 25 -6 66 -6 93 1 40 -2 47 -18 47 -20 0 -31 -18 -31 -51 0 -12 -7 -19 -20 -19 -16 0 -20 7 -20 35 0 28 -4 35 -20 35 -19 0 -20 -7 -20 -120z m90 -40 c0 -36 -2 -40 -25 -40 -22 0 -25 4 -25 40 0 36 3 40 25 40 23 0 25 -4 25 -40z"/>
 <path d="M1540 3900 l0 -120 70 0 c63 0 70 2 70 20 0 17 -7 20 -45 20 -43 0 -45 1 -45 30 0 28 3 30 35 30 28 0 35 4 35 20 0 16 -7 20 -35 20 -30 0 -35 3 -35 24 0 22 5 25 43 28 35 2 43 7 45 26 3 21 0 22 -67 22 l-71 0 0 -120z"/>
 <path d="M1710 4013 c0 -5 12 -59 26 -121 l27 -113 30 3 c30 3 31 5 59 113 33 133 33 127 6 123 -15 -2 -24 -11 -26 -25 -3 -19 -10 -23 -38 -23 -28 0 -35 4 -40 25 -4 16 -13 25 -25 25 -10 0 -19 -3 -19 -7z m99 -100 c-1 -10 -4 -29 -9 -43 l-7 -25 -7 30 c-4 17 -9 36 -12 43 -2 7 5 12 16 12 13 0 20 -6 19 -17z"/>
 <path d="M1910 3901 l0 -121 60 0 c48 0 61 4 70 19 13 25 13 114 0 127 -7 7 -8 25 -1 52 8 40 8 42 -15 42 -19 0 -24 -7 -30 -35 -8 -44 -32 -46 -36 -2 -2 24 -8 33 -25 35 -23 3 -23 2 -23 -117z m90 -41 c0 -33 -3 -40 -20 -40 -17 0 -20 7 -20 40 0 33 3 40 20 40 17 0 20 -7 20 -40z"/>
 <path d="M2182 4008 c-8 -8 -12 -47 -12 -108 0 -61 4 -100 12 -108 7 -7 33 -12 58 -12 55 0 70 13 70 57 0 26 -4 33 -19 33 -12 0 -21 -9 -25 -25 -4 -16 -13 -25 -26 -25 -18 0 -20 7 -20 80 0 73 2 80 20 80 13 0 22 -9 26 -25 4 -16 13 -25 25 -25 24 0 26 51 3 74 -18 19 -94 22 -112 4z"/>
 <path d="M2340 3900 l0 -120 70 0 c63 0 70 2 70 20 0 17 -7 20 -45 20 -43 0 -45 1 -45 30 0 28 3 30 35 30 28 0 35 4 35 20 0 16 -7 20 -35 20 -31 0 -35 3 -35 25 0 23 4 25 45 25 41 0 45 2 45 25 0 24 -2 25 -70 25 l-70 0 0 -120z"/>
 <path d="M2517 4013 c-4 -3 -7 -57 -7 -120 l0 -113 59 0 c37 0 63 5 70 14 7 8 10 52 9 120 -3 100 -4 107 -23 104 -13 -2 -22 -13 -25 -33 -3 -18 -12 -31 -23 -33 -14 -3 -17 4 -17 32 0 28 -4 36 -18 36 -10 0 -22 -3 -25 -7z m91 -150 c-2 -31 -7 -39 -25 -41 -21 -3 -23 1 -23 37 0 37 2 41 26 41 23 0 25 -3 22 -37z"/>
 <path d="M2730 3920 l0 -100 -25 0 c-18 0 -25 -5 -25 -20 0 -18 7 -20 70 -20 63 0 70 2 70 20 0 13 -7 20 -20 20 -19 0 -20 7 -20 100 l0 100 -25 0 -25 0 0 -100z"/>
 <path d="M2850 3900 c0 -113 1 -120 20 -120 19 0 20 7 20 120 0 113 -1 120 -20 120 -19 0 -20 -7 -20 -120z"/>
 <path d="M2930 3900 l0 -120 70 0 c63 0 70 2 70 20 0 17 -7 20 -45 20 -43 0 -45 1 -45 29 0 26 4 30 33 33 24 2 33 8 35 26 3 19 -1 22 -32 22 -36 0 -36 0 -36 45 0 41 -2 45 -25 45 l-25 0 0 -120z"/>
 <path d="M3100 3900 l0 -120 25 0 25 0 0 120 0 120 -25 0 -25 0 0 -120z"/>
 <path d="M3199 4003 c-18 -20 -24 -158 -10 -195 9 -25 15 -28 59 -28 57 0 72 12 72 57 0 26 -4 33 -19 33 -13 0 -21 -8 -23 -22 -2 -15 -10 -23 -23 -23 -18 0 -20 7 -20 75 0 68 2 75 20 75 13 0 21 -8 23 -22 2 -15 10 -23 23 -23 15 0 19 7 19 33 0 18 -5 38 -12 45 -18 18 -93 15 -109 -5z"/>
 <path d="M3375 3928 c13 -51 26 -105 29 -120 5 -23 12 -28 36 -28 32 0 28 -8 65 140 9 36 18 73 21 83 4 13 -1 17 -20 17 -18 0 -25 -6 -28 -22 -2 -19 -9 -23 -38 -23 -29 0 -36 4 -38 23 -2 15 -10 22 -27 22 l-23 0 23 -92z m81 -20 c-3 -13 -6 -30 -6 -37 0 -22 -16 -1 -24 32 -5 23 -3 27 15 27 17 0 20 -4 15 -22z"/>
 <path d="M3557 4013 c-4 -3 -7 -57 -7 -120 l0 -113 58 0 c32 0 63 5 70 12 16 16 16 200 0 216 -13 13 -110 17 -121 5z m91 -115 c-3 -67 -5 -73 -25 -76 -22 -3 -23 0 -23 72 0 75 0 76 25 76 26 0 26 -1 23 -72z"/>
 <path d="M3742 4008 c-16 -16 -16 -200 0 -216 7 -7 34 -12 60 -12 43 0 50 3 58 26 6 14 10 58 10 97 0 94 -15 117 -74 117 -23 0 -47 -5 -54 -12z m76 -111 c3 -77 2 -78 -20 -75 -21 3 -23 9 -26 67 -4 75 2 94 25 89 15 -3 18 -16 21 -81z"/>
 <path d="M1530 3491 c-69 -21 -130 -73 -166 -141 -18 -33 -19 -78 -19 -1005 l0 -970 25 -49 c14 -27 40 -61 59 -77 73 -60 57 -59 835 -59 l711 0 -255 255 -255 255 -432 0 -433 0 0 770 0 770 51 0 50 0 -27 -35 c-72 -95 -70 -208 4 -286 28 -28 85 -60 227 -126 286 -133 444 -234 618 -393 53 -49 60 -52 94 -45 50 9 86 29 134 72 36 33 41 35 57 20 14 -13 22 -14 41 -4 52 26 80 94 81 190 l0 47 -150 72 c-82 39 -150 74 -150 79 0 4 30 47 66 96 95 127 94 125 42 121 -39 -3 -43 -1 -46 22 -8 74 -12 76 -38 19 -27 -59 -76 -139 -84 -139 -3 0 -3 53 -1 117 l3 117 -37 -29 -38 -29 -35 40 c-29 34 -33 36 -27 14 4 -14 9 -78 12 -144 l6 -118 -22 11 c-63 34 -359 276 -369 303 -2 4 298 8 667 8 l671 0 0 -596 c0 -534 2 -599 16 -624 23 -38 64 -60 113 -60 33 0 49 7 79 34 l37 34 0 644 c0 599 -1 645 -18 679 -26 52 -75 99 -132 125 l-50 24 -945 -1 c-520 0 -956 -4 -970 -8z m461 -274 c98 -66 117 -196 43 -292 l-34 -45 27 -11 c190 -69 323 -123 323 -130 0 -12 -87 -61 -102 -57 -7 2 -91 43 -187 91 l-174 88 35 24 c92 62 89 198 -4 255 -78 47 -177 4 -178 -78 0 -40 27 -68 99 -102 29 -13 50 -28 48 -34 -2 -6 -20 -15 -41 -20 -72 -18 -156 46 -172 131 -12 61 33 143 101 184 46 29 171 27 216 -4z m-101 -122 c16 -8 34 -24 40 -34 11 -21 14 -74 4 -84 -8 -8 -127 58 -139 78 -8 12 -4 21 14 36 28 23 43 24 81 4z m405 -132 c55 -42 110 -80 123 -86 27 -13 27 -17 2 -60 l-20 -34 -155 60 c-125 49 -154 64 -149 77 24 56 33 90 34 128 l0 43 33 -26 c17 -15 77 -61 132 -102z m582 -365 c-3 -26 -13 -61 -22 -77 l-15 -31 -71 60 c-40 33 -100 79 -135 102 -35 24 -64 46 -64 49 0 4 7 23 15 42 l15 36 141 -67 141 -67 -5 -47z m-168 -67 c34 -28 34 -29 18 -54 -9 -13 -39 -36 -68 -51 l-52 -25 -27 22 c-76 62 -155 131 -158 136 -1 4 10 14 25 23 16 9 41 30 57 47 l29 30 71 -50 c39 -27 86 -62 105 -78z"/>
 <path d="M2500 2182 l0 -157 463 -463 c254 -254 467 -462 472 -462 6 0 78 70 159 156 l149 156 -464 464 -464 464 -157 0 -158 0 0 -158z"/>
 <path d="M3700 1135 l-155 -155 87 -87 c124 -124 123 -124 285 40 154 155 154 151 30 275 -45 45 -84 82 -87 82 -3 0 -75 -70 -160 -155z"/>
 </g>

</svg>