<!DOCTYPE svg PUBLIC "-//W3C//DTD SVG 20010904//EN" "http://www.w3.org/TR/2001/REC-SVG-20010904/DTD/svg10.dtd">
<svg version="1.0" xmlns="http://www.w3.org/2000/svg" width="500px" height="500px" viewBox="0 0 5000 5000" preserveAspectRatio="xMidYMid meet">
<g id="layer101" fill="#8c1919" stroke="none">
 <path d="M655 4626 c-108 -34 -195 -110 -242 -211 l-28 -60 0 -1875 0 -1875 26 -56 c50 -107 144 -185 255 -214 54 -14 267 -15 1900 -13 l1839 3 48 22 c121 56 192 135 228 253 19 64 19 98 17 1900 l-3 1835 -23 58 c-33 82 -123 176 -204 213 l-63 29 -1855 2 c-1479 1 -1863 -1 -1895 -11z"/>
 </g>
<g id="layer102" fill="#fefefe" stroke="none">
 <path d="M776 4004 c-13 -12 -16 -39 -16 -124 0 -101 2 -110 22 -124 26 -18 71 -21 99 -6 28 15 28 90 0 90 -13 0 -21 -8 -23 -22 -2 -15 -11 -24 -25 -26 -22 -3 -23 -1 -23 87 0 86 1 91 21 91 12 0 23 -8 26 -20 3 -11 14 -20 24 -20 15 0 19 7 19 33 0 18 -5 38 -12 45 -18 18 -94 15 -112 -4z"/>
 <path d="M949 4003 c-18 -20 -24 -158 -10 -195 9 -25 15 -28 59 -28 26 0 53 5 60 12 16 16 16 200 0 216 -18 18 -93 15 -109 -5z m76 -103 c0 -68 -2 -75 -20 -75 -18 0 -20 8 -23 64 -4 75 2 94 25 89 15 -3 18 -15 18 -78z"/>
 <path d="M1110 3900 c0 -114 1 -120 21 -120 15 0 27 15 47 58 l27 57 3 -57 c3 -54 5 -58 27 -58 l25 0 0 120 c0 113 -1 120 -20 120 -14 0 -29 -18 -54 -67 l-35 -68 -1 68 c0 60 -2 67 -20 67 -19 0 -20 -7 -20 -120z"/>
 <path d="M1306 4004 c-9 -8 -16 -26 -16 -40 0 -19 5 -24 24 -24 15 0 26 7 29 20 8 31 37 25 37 -8 0 -24 -6 -30 -42 -42 -39 -14 -43 -18 -46 -52 -5 -60 11 -78 66 -78 55 0 72 12 72 52 0 22 -5 28 -21 28 -12 0 -23 -8 -26 -20 -8 -29 -43 -26 -43 4 0 19 8 26 45 36 l45 13 0 51 c0 29 -5 57 -12 64 -18 18 -94 15 -112 -4z"/>
 <path d="M1479 4003 c-10 -11 -14 -46 -14 -117 0 -97 1 -101 23 -104 21 -3 22 -1 22 92 0 96 0 96 25 96 25 0 25 0 25 -95 0 -88 1 -95 20 -95 19 0 20 7 20 108 0 71 -4 112 -12 120 -18 18 -93 15 -109 -5z"/>
 <path d="M1640 3900 c0 -113 1 -120 20 -120 19 0 20 7 20 94 l0 95 38 3 c30 2 38 7 40 26 3 21 0 22 -57 22 l-61 0 0 -120z"/>
 <path d="M1830 3920 c0 -93 -1 -100 -20 -100 -13 0 -20 -7 -20 -20 0 -18 7 -20 70 -20 63 0 70 2 70 20 0 15 -7 20 -25 20 l-25 0 0 100 0 100 -25 0 -25 0 0 -100z"/>
 <path d="M1950 4013 c0 -5 12 -59 26 -121 l27 -113 30 3 c30 3 31 5 59 113 33 133 33 127 6 123 -15 -2 -24 -11 -26 -25 -3 -19 -10 -23 -38 -23 -28 0 -35 4 -40 25 -4 16 -13 25 -25 25 -10 0 -19 -3 -19 -7z m99 -100 c-1 -10 -4 -29 -9 -43 l-7 -25 -7 30 c-4 17 -9 36 -12 43 -2 7 5 12 16 12 13 0 20 -6 19 -17z"/>
 <path d="M2150 3901 l0 -121 60 0 c48 0 61 4 70 19 13 25 13 114 0 127 -7 7 -8 25 -1 52 8 40 8 42 -15 42 -19 0 -24 -7 -30 -35 -8 -44 -32 -46 -36 -2 -2 24 -8 33 -25 35 -23 3 -23 2 -23 -117z m90 -41 c0 -33 -3 -40 -20 -40 -17 0 -20 7 -20 40 0 33 3 40 20 40 17 0 20 -7 20 -40z"/>
 <path d="M2410 3901 l0 -121 60 0 c70 0 80 11 80 88 0 55 -10 69 -58 78 -26 5 -31 12 -34 38 -2 23 -8 32 -25 34 -23 3 -23 2 -23 -117z m90 -41 c0 -33 -3 -40 -20 -40 -17 0 -20 7 -20 40 0 33 3 40 20 40 17 0 20 -7 20 -40z"/>
 <path d="M2580 4013 c0 -5 12 -59 26 -121 l27 -113 30 3 c30 3 31 5 59 113 33 133 33 127 6 123 -15 -2 -24 -11 -26 -25 -3 -19 -10 -23 -38 -23 -28 0 -35 4 -40 25 -4 16 -13 25 -25 25 -10 0 -19 -3 -19 -7z m99 -100 c-1 -10 -4 -29 -9 -43 l-7 -25 -7 30 c-4 17 -9 36 -12 43 -2 7 5 12 16 12 13 0 20 -6 19 -17z"/>
 <path d="M2780 3901 l0 -121 60 0 c48 0 61 4 70 19 13 25 13 114 0 127 -7 7 -8 25 -1 52 8 40 8 42 -15 42 -19 0 -24 -7 -30 -35 -8 -44 -32 -46 -36 -2 -2 24 -8 33 -25 35 -23 3 -23 2 -23 -117z m90 -41 c0 -33 -3 -40 -20 -40 -17 0 -20 7 -20 40 0 33 3 40 20 40 17 0 20 -7 20 -40z"/>
 <path d="M2990 3920 c0 -93 -1 -100 -20 -100 -13 0 -20 -7 -20 -20 0 -18 7 -20 65 -20 58 0 65 2 65 20 0 13 -7 20 -20 20 -19 0 -20 7 -20 100 l0 100 -25 0 -25 0 0 -100z"/>
 <path d="M3110 3900 l0 -120 25 0 25 0 0 120 0 120 -25 0 -25 0 0 -120z"/>
 <path d="M3206 4004 c-12 -12 -16 -36 -16 -100 0 -111 7 -124 68 -124 57 0 72 12 72 57 0 26 -4 33 -19 33 -13 0 -21 -8 -23 -22 -2 -15 -11 -24 -26 -26 -22 -3 -23 -2 -20 75 3 70 5 78 23 78 13 0 21 -8 23 -22 2 -15 10 -23 23 -23 15 0 19 7 19 33 0 18 -5 38 -12 45 -18 18 -94 15 -112 -4z"/>
 <path d="M3370 3900 c0 -113 1 -120 20 -120 19 0 20 7 20 120 0 113 -1 120 -20 120 -19 0 -20 -7 -20 -120z"/>
 <path d="M3450 3901 l0 -121 60 0 c70 0 80 11 80 88 0 55 -10 69 -58 78 -26 5 -31 12 -34 38 -2 23 -8 32 -25 34 -23 3 -23 2 -23 -117z m90 -41 c0 -33 -3 -40 -20 -40 -17 0 -20 7 -20 40 0 33 3 40 20 40 17 0 20 -7 20 -40z"/>
 <path d="M3620 4013 c0 -5 12 -59 26 -121 l27 -113 30 3 c30 3 31 5 59 113 33 133 33 127 6 123 -15 -2 -24 -11 -26 -25 -3 -19 -10 -23 -38 -23 -28 0 -35 4 -40 25 -4 16 -13 25 -25 25 -10 0 -19 -3 -19 -7z m99 -100 c-1 -10 -4 -29 -9 -43 l-7 -25 -7 30 c-4 17 -9 36 -12 43 -2 7 5 12 16 12 13 0 20 -6 19 -17z"/>
 <path d="M3820 3900 c0 -114 1 -120 21 -120 15 0 27 15 47 58 l27 57 3 -57 c3 -54 5 -58 27 -58 l25 0 0 120 c0 113 -1 120 -20 120 -14 0 -29 -18 -54 -67 l-35 -68 -1 68 c0 60 -2 67 -20 67 -19 0 -20 -7 -20 -120z"/>
 <path d="M4040 3920 c0 -93 -1 -100 -20 -100 -13 0 -20 -7 -20 -20 0 -18 7 -20 65 -20 58 0 65 2 65 20 0 13 -7 20 -20 20 -19 0 -20 7 -20 100 l0 100 -25 0 -25 0 0 -100z"/>
 <path d="M4160 3900 l0 -120 70 0 c63 0 70 2 70 20 0 17 -7 20 -45 20 -43 0 -45 1 -45 30 0 28 3 30 35 30 28 0 35 4 35 20 0 16 -7 20 -35 20 -30 0 -35 3 -35 24 0 22 5 25 43 28 35 2 43 7 45 26 3 21 0 22 -67 22 l-71 0 0 -120z"/>
 <path d="M1334 3680 c-30 -12 -202 -178 -220 -211 -8 -16 -14 -49 -14 -76 l0 -47 323 -324 c177 -178 334 -330 349 -338 66 -34 102 -17 231 113 104 105 122 139 106 196 -11 41 -609 655 -663 681 -37 17 -79 20 -112 6z"/>
 <path d="M2643 2925 c-39 -7 -95 -21 -125 -30 -59 -20 -198 -87 -240 -116 -26 -19 -27 -19 -64 6 -20 14 -43 25 -51 25 -28 0 -71 -30 -126 -90 -65 -70 -72 -101 -32 -148 l25 -30 -39 -65 c-48 -78 -83 -159 -112 -258 -29 -102 -38 -333 -16 -439 65 -313 266 -572 548 -704 296 -139 634 -120 921 50 108 64 268 221 327 321 101 170 143 325 143 523 -1 268 -104 507 -301 700 -185 180 -417 271 -685 269 -55 0 -133 -7 -173 -14z m335 -201 c277 -57 508 -266 591 -538 21 -69 25 -102 25 -221 1 -120 -2 -151 -22 -215 -84 -266 -266 -448 -532 -532 -65 -20 -95 -23 -220 -22 -131 0 -153 3 -230 28 -244 81 -423 258 -506 502 -35 102 -44 281 -21 391 34 157 97 273 217 394 186 188 441 266 698 213z"/>
 <path d="M2685 2426 c-149 -49 -271 -174 -310 -320 -26 -96 -18 -232 18 -311 41 -88 98 -157 167 -204 267 -177 619 -53 712 253 17 55 20 86 16 161 -4 81 -10 104 -41 170 -47 99 -126 179 -222 225 -65 32 -77 35 -185 37 -75 2 -129 -2 -155 -11z m345 -223 c-1 -61 -53 -155 -104 -188 -17 -12 -30 -12 -60 -4 -28 8 -51 7 -85 -1 l-46 -12 -45 50 c-45 48 -70 104 -70 156 l0 26 205 0 205 0 0 -27z m-163 -233 c7 0 28 -14 48 -31 66 -58 66 -150 0 -208 -49 -43 -93 -49 -152 -20 -39 20 -51 32 -67 71 -17 41 -18 52 -7 89 20 66 90 115 146 103 11 -2 25 -4 32 -4z"/>
 </g>

</svg>