<!DOCTYPE svg PUBLIC "-//W3C//DTD SVG 20010904//EN" "http://www.w3.org/TR/2001/REC-SVG-20010904/DTD/svg10.dtd">
<svg version="1.0" xmlns="http://www.w3.org/2000/svg" width="500px" height="500px" viewBox="0 0 5000 5000" preserveAspectRatio="xMidYMid meet">
<g id="layer101" fill="#8c1919" stroke="none">
 <path d="M655 4626 c-108 -34 -195 -110 -242 -211 l-28 -60 0 -1875 0 -1875 33 -67 c40 -81 121 -158 202 -191 l55 -22 1865 0 1865 0 65 31 c83 39 150 106 192 192 l33 67 0 1860 0 1860 -23 58 c-33 82 -123 176 -204 213 l-63 29 -1855 2 c-1479 1 -1863 -1 -1895 -11z"/>
 </g>
<g id="layer102" fill="#fefdfd" stroke="none">
 <path d="M1302 4008 c-8 -8 -12 -50 -12 -124 0 -129 7 -144 69 -144 47 0 74 26 69 67 -4 36 -41 40 -46 6 -2 -15 -10 -23 -23 -23 -17 0 -19 8 -19 90 0 83 1 90 20 90 13 0 20 -7 20 -20 0 -15 7 -20 25 -20 21 0 25 5 25 29 0 16 -7 37 -16 45 -18 19 -94 22 -112 4z"/>
 <path d="M1479 4003 c-18 -20 -24 -158 -10 -195 9 -25 15 -28 59 -28 26 0 53 5 60 12 8 8 12 47 12 108 0 61 -4 100 -12 108 -18 18 -93 15 -109 -5z m76 -103 c0 -68 -2 -75 -20 -75 -18 0 -20 8 -23 64 -4 75 2 94 25 89 15 -3 18 -15 18 -78z"/>
 <path d="M1640 3900 c0 -109 2 -120 18 -120 12 0 28 21 49 63 l32 62 0 -62 c1 -61 2 -63 26 -63 l26 0 -3 117 c-3 102 -5 118 -20 121 -12 2 -27 -16 -52 -65 l-35 -68 -1 68 c0 60 -2 67 -20 67 -19 0 -20 -7 -20 -120z"/>
 <path d="M1832 4008 c-7 -7 -12 -25 -12 -40 0 -35 31 -39 52 -6 17 26 38 17 38 -16 0 -20 -8 -26 -45 -35 l-45 -11 0 -48 c0 -26 5 -53 12 -60 7 -7 34 -12 60 -12 42 0 50 3 60 24 6 14 8 32 5 40 -9 23 -38 20 -44 -4 -8 -29 -43 -26 -43 3 0 18 9 26 43 37 40 14 42 17 45 61 2 33 -2 51 -13 63 -19 19 -95 22 -113 4z"/>
 <path d="M2006 4004 c-13 -12 -16 -38 -16 -120 l0 -104 25 0 c25 0 25 0 25 96 0 93 1 95 23 92 21 -3 22 -8 25 -95 2 -85 4 -93 22 -93 19 0 20 7 20 108 0 71 -4 112 -12 120 -18 18 -94 15 -112 -4z"/>
 <path d="M2170 3900 c0 -113 1 -120 20 -120 19 0 20 7 20 94 l0 95 38 3 c30 2 38 7 40 26 3 21 0 22 -57 22 l-61 0 0 -120z"/>
 <path d="M2360 3920 c0 -93 -1 -100 -20 -100 -13 0 -20 -7 -20 -20 0 -18 7 -20 65 -20 58 0 65 2 65 20 0 13 -7 20 -20 20 -19 0 -20 7 -20 100 l0 100 -25 0 -25 0 0 -100z"/>
 <path d="M2480 4013 c0 -5 12 -59 26 -121 l27 -113 30 3 c30 3 31 5 59 113 33 133 33 127 6 123 -15 -2 -24 -11 -26 -25 -3 -19 -10 -23 -38 -23 -28 0 -35 4 -40 25 -4 16 -13 25 -25 25 -10 0 -19 -3 -19 -7z m99 -100 c-1 -10 -4 -29 -9 -43 l-7 -25 -7 30 c-4 17 -9 36 -12 43 -2 7 5 12 16 12 13 0 20 -6 19 -17z"/>
 <path d="M2680 3900 l0 -120 60 0 c57 0 61 2 71 28 6 15 8 47 4 72 -3 25 -6 66 -6 93 1 40 -2 47 -18 47 -20 0 -31 -18 -31 -51 0 -12 -7 -19 -20 -19 -16 0 -20 7 -20 35 0 28 -4 35 -20 35 -19 0 -20 -7 -20 -120z m90 -40 c0 -36 -2 -40 -25 -40 -22 0 -25 4 -25 40 0 36 3 40 25 40 23 0 25 -4 25 -40z"/>
 <path d="M2952 4008 c-16 -16 -16 -200 0 -216 7 -7 33 -12 60 -12 52 0 68 15 68 64 0 21 -5 26 -25 26 -20 0 -25 -5 -25 -26 0 -21 -4 -25 -22 -22 -22 3 -23 8 -23 78 0 68 2 75 20 75 13 0 21 -8 23 -22 5 -33 52 -33 52 0 0 42 -27 67 -74 67 -23 0 -47 -5 -54 -12z"/>
 <path d="M3126 4004 c-13 -12 -16 -38 -16 -120 l0 -104 25 0 c25 0 25 0 25 96 0 93 1 95 23 92 21 -3 22 -8 25 -95 2 -85 4 -93 22 -93 19 0 20 7 20 108 0 71 -4 112 -12 120 -18 18 -94 15 -112 -4z"/>
 <path d="M3287 4013 c-4 -3 -7 -57 -7 -120 l0 -113 59 0 c37 0 63 5 70 14 7 8 10 52 9 120 -3 100 -4 107 -23 104 -13 -2 -22 -13 -25 -33 -3 -18 -12 -31 -23 -33 -14 -3 -17 4 -17 32 0 28 -4 36 -18 36 -10 0 -22 -3 -25 -7z m91 -150 c-2 -31 -7 -39 -25 -41 -21 -3 -23 1 -23 37 0 37 2 41 26 41 23 0 25 -3 22 -37z"/>
 <path d="M3472 4008 c-7 -7 -12 -25 -12 -40 0 -21 5 -28 19 -28 11 0 21 9 24 21 8 29 42 21 42 -10 0 -20 -8 -27 -42 -38 -42 -14 -43 -15 -43 -62 0 -26 5 -52 12 -59 7 -7 34 -12 60 -12 43 0 50 3 59 27 19 50 -14 74 -43 31 -10 -15 -20 -19 -32 -15 -30 12 -13 41 34 58 41 15 45 20 48 54 5 56 -19 85 -71 85 -24 0 -48 -5 -55 -12z"/>
 <path d="M3646 4004 c-12 -12 -16 -36 -16 -100 0 -111 7 -124 68 -124 27 0 53 5 60 12 8 8 12 47 12 108 0 61 -4 100 -12 108 -18 18 -94 15 -112 -4z m79 -104 c0 -70 -1 -75 -22 -78 -22 -3 -23 0 -23 71 0 77 4 90 30 85 12 -3 15 -18 15 -78z"/>
 <path d="M1370 3583 c-25 -10 -202 -176 -222 -208 -11 -18 -18 -49 -18 -80 l0 -49 323 -324 c177 -178 334 -330 349 -338 66 -35 103 -17 234 118 113 115 126 141 99 204 -19 46 -611 645 -661 669 -32 15 -76 18 -104 8z"/>
 <path d="M2650 2821 c-106 -23 -219 -68 -303 -121 l-65 -41 -37 26 c-21 14 -44 25 -52 25 -26 0 -68 -28 -114 -77 -77 -79 -85 -112 -44 -161 l25 -30 -39 -65 c-93 -151 -131 -282 -138 -473 -6 -158 7 -249 57 -385 151 -414 594 -685 1030 -629 232 29 436 133 601 308 241 255 325 623 217 962 -105 330 -374 579 -714 659 -117 27 -300 28 -424 2z m426 -213 c123 -37 225 -99 324 -198 157 -157 230 -333 230 -548 -1 -371 -256 -680 -624 -759 -95 -20 -264 -12 -366 17 -223 64 -410 228 -502 442 -11 27 -18 51 -15 54 3 3 158 -47 344 -111 l340 -116 374 127 c206 70 377 130 381 133 4 3 -165 65 -374 137 l-381 131 -231 -80 c-127 -43 -239 -82 -248 -84 -15 -5 -18 2 -18 41 0 25 5 46 10 46 6 0 15 11 22 25 9 19 8 29 -5 48 -15 24 -13 125 7 365 l5 52 -55 0 -54 0 0 -32 c1 -18 7 -105 15 -193 11 -138 11 -162 -1 -176 -18 -20 -18 -63 1 -79 10 -8 15 -31 15 -65 l0 -53 -81 -27 c-44 -15 -83 -25 -86 -22 -25 25 -30 236 -8 339 32 152 97 270 215 389 115 116 257 191 410 220 84 15 267 3 356 -23z m-770 -330 c-3 -13 -6 -50 -6 -82 0 -79 -6 -68 -14 27 -6 68 -5 77 10 77 12 0 15 -6 10 -22z m-5 -391 c-1 -12 -15 -9 -19 4 -3 6 1 10 8 8 6 -3 11 -8 11 -12z m835 -126 c176 -61 317 -110 314 -110 -3 -1 -149 -50 -324 -111 l-318 -109 -312 106 c-171 58 -314 109 -318 112 -4 4 23 17 61 30 l69 23 213 -71 c118 -39 217 -71 222 -71 4 0 7 9 7 19 0 16 -31 30 -186 81 -102 34 -184 64 -182 66 7 7 404 143 419 143 9 1 160 -48 335 -108z"/>
 <path d="M2607 2155 c-115 -46 -211 -86 -214 -88 -7 -7 66 -237 75 -236 4 0 83 26 177 58 l170 58 174 -58 c97 -33 178 -59 182 -59 3 0 21 48 39 108 18 59 35 112 37 118 3 9 -306 140 -422 179 -5 2 -104 -34 -218 -80z m405 -36 c101 -40 185 -73 187 -75 3 -3 -48 -164 -53 -164 -1 0 -75 24 -164 54 l-162 55 -161 -54 c-89 -30 -165 -53 -168 -50 -13 8 -56 158 -46 162 6 2 87 34 180 72 94 38 178 69 187 70 10 1 100 -31 200 -70z"/>
 </g>

</svg>