<!DOCTYPE svg PUBLIC "-//W3C//DTD SVG 20010904//EN" "http://www.w3.org/TR/2001/REC-SVG-20010904/DTD/svg10.dtd">
<svg version="1.0" xmlns="http://www.w3.org/2000/svg" width="500px" height="500px" viewBox="0 0 5000 5000" preserveAspectRatio="xMidYMid meet">
<g id="layer101" fill="#8c1919" stroke="none">
 <path d="M655 4626 c-108 -34 -195 -110 -242 -211 l-28 -60 0 -1875 0 -1875 33 -67 c52 -107 152 -183 270 -208 31 -7 677 -10 1882 -8 l1835 3 50 23 c119 55 200 148 231 266 12 47 14 319 12 1888 l-3 1833 -23 58 c-33 82 -123 176 -204 213 l-63 29 -1855 2 c-1479 1 -1863 -1 -1895 -11z"/>
 </g>
<g id="layer102" fill="#fefefe" stroke="none">
 <path d="M715 3928 c13 -51 26 -105 29 -120 5 -23 12 -28 36 -28 32 0 28 -8 65 140 9 36 18 73 21 83 4 13 -1 17 -20 17 -18 0 -25 -6 -28 -22 -2 -19 -9 -23 -38 -23 -29 0 -36 4 -38 23 -2 15 -10 22 -27 22 l-23 0 23 -92z m81 -20 c-3 -13 -6 -30 -6 -37 0 -22 -16 -1 -24 32 -5 23 -3 27 15 27 17 0 20 -4 15 -22z"/>
 <path d="M912 4008 c-16 -16 -16 -200 0 -216 7 -7 33 -12 60 -12 52 0 68 15 68 64 0 21 -5 26 -25 26 -20 0 -25 -5 -25 -26 0 -21 -4 -25 -22 -22 -22 3 -23 8 -23 78 0 68 2 75 20 75 13 0 21 -8 23 -22 5 -33 52 -33 52 0 0 42 -27 67 -74 67 -23 0 -47 -5 -54 -12z"/>
 <path d="M1110 3920 l0 -100 -25 0 c-18 0 -25 -5 -25 -20 0 -18 7 -20 70 -20 63 0 70 2 70 20 0 13 -7 20 -20 20 -19 0 -20 7 -20 100 l0 100 -25 0 -25 0 0 -100z"/>
 <path d="M1242 4008 c-8 -8 -12 -49 -12 -120 l0 -108 25 0 c25 0 25 0 25 95 0 88 1 95 20 95 19 0 20 -7 20 -95 0 -95 0 -95 25 -95 l25 0 0 104 c0 82 -3 108 -16 120 -18 19 -94 22 -112 4z"/>
 <path d="M1404 3998 c3 -13 16 -67 28 -120 l22 -98 31 0 31 0 27 113 c15 61 27 115 27 120 0 4 -9 7 -20 7 -13 0 -22 -9 -26 -25 -5 -20 -12 -25 -39 -25 -27 0 -34 5 -39 25 -4 17 -13 25 -27 25 -17 0 -20 -4 -15 -22z m93 -110 c-8 -34 -12 -38 -18 -22 -14 37 -10 64 10 64 17 0 18 -4 8 -42z"/>
 <path d="M1600 3900 l0 -120 25 0 c25 0 25 0 25 95 l0 95 35 0 c31 0 35 3 35 25 0 24 -3 25 -60 25 l-60 0 0 -120z"/>
 <path d="M1757 4013 c-4 -3 -7 -57 -7 -120 l0 -113 25 0 25 0 0 120 c0 110 -2 120 -18 120 -10 0 -22 -3 -25 -7z"/>
 <path d="M1830 4016 c0 -2 20 -46 45 -97 l44 -94 -39 -3 c-32 -3 -40 -7 -40 -23 0 -17 7 -19 70 -19 39 0 70 4 70 9 0 4 -18 47 -40 95 -22 47 -40 89 -40 91 0 3 18 5 40 5 33 0 40 3 40 20 0 18 -7 20 -75 20 -41 0 -75 -2 -75 -4z"/>
 <path d="M2014 3998 c3 -13 16 -67 28 -120 l22 -98 31 0 31 0 27 113 c15 61 27 115 27 120 0 4 -9 7 -20 7 -13 0 -22 -9 -26 -25 -5 -20 -12 -25 -39 -25 -27 0 -34 5 -39 25 -4 17 -13 25 -27 25 -17 0 -20 -4 -15 -22z m93 -110 c-8 -34 -12 -38 -18 -22 -14 37 -10 64 10 64 17 0 18 -4 8 -42z"/>
 <path d="M2210 3901 l0 -121 60 0 c48 0 61 4 70 19 13 25 13 114 0 127 -7 7 -8 25 -1 52 8 40 8 42 -15 42 -19 0 -24 -7 -30 -35 -8 -44 -32 -46 -36 -2 -2 24 -8 33 -25 35 -23 3 -23 2 -23 -117z m90 -41 c0 -33 -3 -40 -20 -40 -17 0 -20 7 -20 40 0 33 3 40 20 40 17 0 20 -7 20 -40z"/>
 <path d="M2470 3901 l0 -121 60 0 c70 0 80 11 80 88 0 55 -10 69 -58 78 -26 5 -31 12 -34 38 -2 23 -8 32 -25 34 -23 3 -23 2 -23 -117z m90 -41 c0 -33 -3 -40 -20 -40 -17 0 -20 7 -20 40 0 33 3 40 20 40 17 0 20 -7 20 -40z"/>
 <path d="M2640 4013 c0 -5 12 -59 26 -121 l27 -113 30 3 c30 3 31 5 59 113 33 133 33 127 6 123 -15 -2 -24 -11 -26 -25 -3 -19 -10 -23 -38 -23 -28 0 -35 4 -40 25 -4 16 -13 25 -25 25 -10 0 -19 -3 -19 -7z m99 -100 c-1 -10 -4 -29 -9 -43 l-7 -25 -7 30 c-4 17 -9 36 -12 43 -2 7 5 12 16 12 13 0 20 -6 19 -17z"/>
 <path d="M2840 3901 l0 -121 60 0 c48 0 61 4 70 19 13 25 13 114 0 127 -7 7 -8 25 -1 52 8 40 8 42 -15 42 -19 0 -24 -7 -30 -35 -8 -44 -32 -46 -36 -2 -2 24 -8 33 -25 35 -23 3 -23 2 -23 -117z m90 -41 c0 -33 -3 -40 -20 -40 -17 0 -20 7 -20 40 0 33 3 40 20 40 17 0 20 -7 20 -40z"/>
 <path d="M3050 3920 c0 -93 -1 -100 -20 -100 -13 0 -20 -7 -20 -20 0 -18 7 -20 65 -20 58 0 65 2 65 20 0 13 -7 20 -20 20 -19 0 -20 7 -20 100 l0 100 -25 0 -25 0 0 -100z"/>
 <path d="M3170 3900 l0 -120 25 0 25 0 0 120 0 120 -25 0 -25 0 0 -120z"/>
 <path d="M3269 4003 c-18 -20 -24 -158 -10 -195 9 -25 15 -28 59 -28 57 0 72 12 72 57 0 26 -4 33 -19 33 -13 0 -21 -8 -23 -22 -2 -15 -10 -23 -23 -23 -18 0 -20 7 -20 75 0 68 2 75 20 75 13 0 21 -8 23 -22 2 -15 10 -23 23 -23 15 0 19 7 19 33 0 18 -5 38 -12 45 -18 18 -93 15 -109 -5z"/>
 <path d="M3430 3900 c0 -113 1 -120 20 -120 19 0 20 7 20 120 0 113 -1 120 -20 120 -19 0 -20 -7 -20 -120z"/>
 <path d="M3510 3901 l0 -121 60 0 c70 0 80 11 80 88 0 55 -10 69 -58 78 -26 5 -31 12 -34 38 -2 23 -8 32 -25 34 -23 3 -23 2 -23 -117z m90 -41 c0 -33 -3 -40 -20 -40 -17 0 -20 7 -20 40 0 33 3 40 20 40 17 0 20 -7 20 -40z"/>
 <path d="M3680 4013 c0 -5 12 -59 26 -121 l27 -113 30 3 c30 3 31 5 59 113 33 133 33 127 6 123 -15 -2 -24 -11 -26 -25 -3 -19 -10 -23 -38 -23 -28 0 -35 4 -40 25 -4 16 -13 25 -25 25 -10 0 -19 -3 -19 -7z m99 -100 c-1 -10 -4 -29 -9 -43 l-7 -25 -7 30 c-4 17 -9 36 -12 43 -2 7 5 12 16 12 13 0 20 -6 19 -17z"/>
 <path d="M3880 3900 c0 -114 1 -120 21 -120 15 0 27 15 47 58 l27 57 3 -57 c3 -54 5 -58 27 -58 l25 0 0 120 c0 113 -1 120 -20 120 -14 0 -29 -18 -54 -67 l-35 -68 -1 68 c0 60 -2 67 -20 67 -19 0 -20 -7 -20 -120z"/>
 <path d="M4100 3920 c0 -93 -1 -100 -20 -100 -13 0 -20 -7 -20 -20 0 -18 7 -20 65 -20 58 0 65 2 65 20 0 13 -7 20 -20 20 -19 0 -20 7 -20 100 l0 100 -25 0 -25 0 0 -100z"/>
 <path d="M4220 3900 l0 -120 70 0 c63 0 70 2 70 20 0 17 -7 20 -45 20 -43 0 -45 1 -45 30 0 28 3 30 35 30 28 0 35 4 35 20 0 16 -7 20 -35 20 -31 0 -35 3 -35 25 0 23 4 25 45 25 41 0 45 2 45 25 0 24 -2 25 -70 25 l-70 0 0 -120z"/>
 <path d="M2283 3325 c-247 -47 -450 -145 -621 -300 l-62 -57 -58 50 c-31 28 -86 80 -122 116 -53 55 -70 66 -97 66 -63 0 -64 -6 -61 -386 3 -321 4 -340 23 -366 41 -56 53 -58 414 -58 318 0 332 1 351 20 43 43 30 65 -122 217 l-143 143 50 45 c119 108 272 190 422 227 124 31 322 31 446 0 288 -72 536 -283 648 -550 17 -41 42 -125 56 -186 29 -130 34 -141 76 -166 68 -42 158 -15 192 56 16 34 17 46 6 119 -44 284 -209 569 -435 751 -146 117 -333 207 -510 246 -118 26 -352 33 -453 13z"/>
 <path d="M2359 2526 c-122 -43 -212 -124 -272 -245 -31 -64 -32 -69 -32 -196 0 -128 1 -132 34 -200 46 -93 134 -181 226 -226 68 -33 73 -34 196 -34 125 0 125 0 202 38 43 21 99 59 127 87 48 47 50 48 50 23 0 -20 31 -58 137 -165 l137 -138 -44 -46 c-177 -180 -495 -282 -765 -244 -291 41 -540 203 -689 450 -55 91 -111 244 -125 341 -11 78 -30 111 -76 133 -71 34 -147 10 -181 -57 -55 -105 64 -457 224 -662 439 -568 1241 -648 1776 -176 38 34 72 61 75 61 4 0 58 -52 121 -115 105 -105 118 -115 152 -115 68 0 68 2 68 370 0 363 -2 372 -69 418 l-35 23 -338 -3 c-298 -3 -337 -1 -332 12 73 171 71 321 -6 456 -111 193 -352 284 -561 210z m358 -231 c-8 -56 -36 -111 -76 -149 -30 -29 -35 -30 -126 -30 l-96 -1 -39 40 c-45 46 -70 99 -70 150 l0 35 206 0 207 0 -6 -45z m-130 -235 c89 -54 82 -200 -11 -244 -85 -40 -185 9 -202 100 -9 50 3 83 45 126 34 34 44 38 87 38 31 0 61 -7 81 -20z"/>
 </g>

</svg>