<!DOCTYPE svg PUBLIC "-//W3C//DTD SVG 20010904//EN" "http://www.w3.org/TR/2001/REC-SVG-20010904/DTD/svg10.dtd">
<svg version="1.0" xmlns="http://www.w3.org/2000/svg" width="500px" height="500px" viewBox="0 0 5000 5000" preserveAspectRatio="xMidYMid meet">
<g id="layer101" fill="#8c1919" stroke="none">
 <path d="M655 4626 c-108 -34 -195 -110 -242 -211 l-28 -60 0 -1875 0 -1875 32 -66 c40 -81 102 -140 191 -182 l67 -32 1865 0 1865 0 67 33 c118 57 191 149 217 272 9 41 11 508 9 1880 l-3 1825 -23 58 c-33 82 -123 176 -204 213 l-63 29 -1855 2 c-1479 1 -1863 -1 -1895 -11z"/>
 </g>
<g id="layer102" fill="#fefefe" stroke="none">
 <path d="M1245 3928 c13 -51 26 -105 29 -120 5 -23 12 -28 36 -28 32 0 28 -8 65 140 9 36 18 73 21 83 4 13 -1 17 -20 17 -18 0 -25 -6 -28 -22 -2 -19 -9 -23 -38 -23 -29 0 -36 4 -38 23 -2 15 -10 22 -27 22 l-23 0 23 -92z m81 -20 c-3 -13 -6 -30 -6 -37 0 -22 -16 -1 -24 32 -5 23 -3 27 15 27 17 0 20 -4 15 -22z"/>
 <path d="M1439 4003 c-18 -20 -24 -158 -10 -195 9 -25 15 -28 59 -28 57 0 72 12 72 57 0 26 -4 33 -19 33 -13 0 -21 -8 -23 -22 -2 -15 -10 -23 -23 -23 -18 0 -20 7 -20 75 0 68 2 75 20 75 13 0 21 -8 23 -22 2 -15 10 -23 23 -23 15 0 19 7 19 33 0 18 -5 38 -12 45 -18 18 -93 15 -109 -5z"/>
 <path d="M1640 3920 l0 -100 -25 0 c-18 0 -25 -5 -25 -20 0 -18 7 -20 70 -20 63 0 70 2 70 20 0 13 -7 20 -20 20 -19 0 -20 7 -20 100 l0 100 -25 0 -25 0 0 -100z"/>
 <path d="M1772 4008 c-8 -8 -12 -49 -12 -120 l0 -108 25 0 c25 0 25 0 25 95 0 88 1 95 20 95 19 0 20 -7 20 -95 0 -95 0 -95 25 -95 l25 0 0 104 c0 82 -3 108 -16 120 -18 19 -94 22 -112 4z"/>
 <path d="M1930 4013 c0 -5 12 -59 26 -121 l27 -113 30 3 c30 3 31 5 59 113 33 133 33 127 6 123 -15 -2 -24 -11 -26 -25 -3 -19 -10 -23 -38 -23 -28 0 -35 4 -40 25 -4 16 -13 25 -25 25 -10 0 -19 -3 -19 -7z m99 -100 c-1 -10 -4 -29 -9 -43 l-7 -25 -7 30 c-4 17 -9 36 -12 43 -2 7 5 12 16 12 13 0 20 -6 19 -17z"/>
 <path d="M2130 3900 l0 -120 25 0 c25 0 25 0 25 95 l0 95 35 0 c31 0 35 3 35 25 0 24 -3 25 -60 25 l-60 0 0 -120z"/>
 <path d="M2287 4013 c-4 -3 -7 -57 -7 -120 l0 -113 25 0 25 0 0 120 c0 110 -2 120 -18 120 -10 0 -22 -3 -25 -7z"/>
 <path d="M2360 4016 c0 -2 20 -46 45 -97 l44 -94 -39 -3 c-32 -3 -40 -7 -40 -23 0 -17 7 -19 70 -19 39 0 70 4 70 9 0 4 -18 47 -40 95 -22 47 -40 89 -40 91 0 3 18 5 40 5 33 0 40 3 40 20 0 18 -7 20 -75 20 -41 0 -75 -2 -75 -4z"/>
 <path d="M2540 4013 c0 -5 12 -59 26 -121 l27 -113 30 3 c30 3 31 5 59 113 33 133 33 127 6 123 -15 -2 -24 -11 -26 -25 -3 -19 -10 -23 -38 -23 -28 0 -35 4 -40 25 -4 16 -13 25 -25 25 -10 0 -19 -3 -19 -7z m99 -100 c-1 -10 -4 -29 -9 -43 l-7 -25 -7 30 c-4 17 -9 36 -12 43 -2 7 5 12 16 12 13 0 20 -6 19 -17z"/>
 <path d="M2740 3901 l0 -121 60 0 c48 0 61 4 70 19 13 25 13 114 0 127 -7 7 -8 25 -1 52 8 40 8 42 -15 42 -19 0 -24 -7 -30 -35 -8 -44 -32 -46 -36 -2 -2 24 -8 33 -25 35 -23 3 -23 2 -23 -117z m90 -41 c0 -33 -3 -40 -20 -40 -17 0 -20 7 -20 40 0 33 3 40 20 40 17 0 20 -7 20 -40z"/>
 <path d="M3012 4008 c-16 -16 -16 -200 0 -216 7 -7 33 -12 58 -12 55 0 70 13 70 57 0 26 -4 33 -19 33 -12 0 -21 -9 -25 -25 -4 -16 -13 -25 -26 -25 -18 0 -20 7 -20 80 0 73 2 80 20 80 13 0 22 -9 26 -25 4 -16 13 -25 25 -25 24 0 26 51 3 74 -18 19 -94 22 -112 4z"/>
 <path d="M3186 4004 c-13 -12 -16 -38 -16 -120 l0 -104 25 0 c25 0 25 0 25 96 0 93 1 95 23 92 21 -3 22 -8 25 -95 2 -85 4 -93 22 -93 19 0 20 7 20 108 0 71 -4 112 -12 120 -18 18 -94 15 -112 -4z"/>
 <path d="M3347 4013 c-4 -3 -7 -57 -7 -120 l0 -113 59 0 c37 0 63 5 70 14 7 8 10 52 9 120 -3 100 -4 107 -23 104 -13 -2 -22 -13 -25 -33 -3 -18 -12 -31 -23 -33 -14 -3 -17 4 -17 32 0 28 -4 36 -18 36 -10 0 -22 -3 -25 -7z m91 -150 c-2 -31 -7 -39 -25 -41 -21 -3 -23 1 -23 37 0 37 2 41 26 41 23 0 25 -3 22 -37z"/>
 <path d="M3532 4008 c-7 -7 -12 -25 -12 -40 0 -35 31 -39 52 -6 17 26 38 17 38 -16 0 -20 -8 -26 -45 -35 l-45 -11 0 -48 c0 -26 5 -53 12 -60 7 -7 34 -12 60 -12 42 0 50 3 60 24 6 14 8 32 5 40 -9 23 -38 20 -44 -4 -8 -29 -43 -26 -43 3 0 18 9 26 43 37 40 14 42 17 45 61 2 33 -2 51 -13 63 -19 19 -95 22 -113 4z"/>
 <path d="M3706 4004 c-12 -12 -16 -36 -16 -100 0 -111 7 -124 68 -124 27 0 53 5 60 12 8 8 12 47 12 108 0 61 -4 100 -12 108 -18 18 -94 15 -112 -4z m79 -104 c0 -70 -1 -75 -22 -78 -22 -3 -23 0 -23 71 0 77 4 90 30 85 12 -3 15 -18 15 -78z"/>
 <path d="M2343 3425 c-243 -45 -449 -144 -621 -300 l-62 -57 -48 40 c-26 22 -81 75 -122 116 -62 64 -80 76 -107 76 -63 0 -64 -7 -61 -386 3 -321 4 -340 23 -366 41 -56 55 -58 398 -58 l314 0 6 -67 c4 -49 1 -73 -9 -87 -18 -27 -18 -61 1 -80 9 -9 15 -33 15 -64 l0 -50 -85 -31 c-47 -17 -96 -33 -110 -37 -14 -3 -25 -9 -25 -13 0 -3 170 -64 378 -135 l377 -129 160 54 c88 30 165 55 172 57 9 2 13 -8 13 -29 0 -28 18 -50 138 -172 l137 -139 -66 -61 c-152 -142 -394 -236 -609 -237 -411 -1 -775 255 -906 637 -18 54 -38 128 -43 164 -11 78 -30 111 -76 133 -71 34 -147 10 -181 -57 -55 -105 64 -457 224 -662 189 -245 426 -394 734 -462 113 -25 358 -24 476 1 216 46 398 138 572 287 l72 62 116 -116 c107 -107 120 -117 154 -117 68 0 68 2 68 370 0 363 -2 372 -69 417 -33 23 -39 23 -330 24 l-296 0 147 52 c82 29 148 55 148 58 0 7 -734 259 -754 259 -8 0 -118 -36 -246 -80 -128 -44 -236 -80 -241 -80 -18 0 -9 71 13 101 22 29 22 31 6 59 -15 26 -16 46 -8 162 5 73 11 161 14 196 l4 62 -54 0 -54 0 0 -32 c0 -33 -1 -32 -97 64 l-98 98 50 45 c116 104 276 190 430 231 54 14 105 18 220 18 133 -1 160 -4 240 -28 291 -87 517 -283 625 -544 18 -41 43 -125 57 -186 29 -130 34 -141 76 -166 68 -42 158 -15 192 56 16 34 17 46 6 119 -14 94 -67 257 -112 347 -146 292 -416 524 -725 621 -167 53 -404 70 -561 42z m-237 -737 c-3 -13 -6 -34 -6 -48 0 -20 -2 -22 -10 -10 -16 26 -12 80 6 80 12 0 15 -6 10 -22z m-4 -393 c0 -5 -5 -11 -11 -13 -6 -2 -11 4 -11 13 0 9 5 15 11 13 6 -2 11 -8 11 -13z m825 -122 c172 -60 313 -110 313 -113 0 -3 -143 -54 -318 -113 l-317 -108 -290 100 c-159 55 -303 105 -320 111 l-30 12 70 25 70 24 217 -73 c119 -40 220 -70 223 -66 21 20 -18 41 -177 93 -95 32 -176 61 -181 64 -6 6 391 149 418 150 5 1 150 -47 322 -106z"/>
 <path d="M2395 2559 c-110 -45 -202 -82 -204 -84 -5 -6 69 -235 76 -235 4 0 85 26 180 57 l173 58 176 -59 c96 -32 177 -56 179 -54 6 6 76 231 73 234 -11 10 -418 164 -434 164 -10 -1 -109 -37 -219 -81z m410 -30 c99 -39 183 -73 187 -77 9 -9 -36 -155 -49 -159 -5 -2 -79 21 -165 51 l-156 55 -163 -54 c-89 -30 -165 -53 -168 -50 -9 5 -56 154 -50 158 8 7 364 146 374 146 6 1 91 -31 190 -70z"/>
 </g>

</svg>